# xmcd CD database file
#
# Track frame offsets:
#	150
#	32523
#	74584
#	102359
#	139173
#	179100
#	205418
#	235645
#	257008
#	280616
#
# Disc length: 4013 seconds
#
# Revision: 0
# Processed by: cddbd v1.4PL0 Copyright (c) Steve Scherf et al.
# Submitted via: CDex 1.50beta8
#
DISCID=930fab0a
DTITLE=Giuseppe Bassi Quartet - We'll Be Togheter Again
DYEAR=1900
DGENRE=Jazz
TTITLE0=L'angelo che vola più in alto
TTITLE1=Love walked in
TTITLE2=We'll be togheter again
TTITLE3=Haze
TTITLE4=Parla più piano (N.Rota)
TTITLE5=Roma non fa la stupida stasera
TTITLE6=Memory of a dream
TTITLE7=Bass tune
TTITLE8=Good Morning Heartache
TTITLE9=Jehu
EXTD=
EXTT0=
EXTT1=
EXTT2=
EXTT3=
EXTT4=
EXTT5=
EXTT6=
EXTT7=
EXTT8=
EXTT9=
PLAYORDER=
